<svg viewBox="0 0 1000 1000"
     xmlns="http://www.w3.org/2000/svg"
     fill="#fff"
     role="img"
     aria-label="YOY glyph (white)">

  <path d="M654.137,124.85C605.271,104.442 552.896,93.942 500,93.942C277.7,93.942 97.217,275.892 97.217,500C97.217,724.108 277.7,906.058 500,906.058C722.3,906.058 902.783,724.108 902.783,500C902.783,373.758 844.542,254.7 745.2,177.85L712.712,220.529C798.896,287.2 849.421,390.483 849.421,500C849.421,694.421 692.85,852.262 500,852.262C307.15,852.262 150.579,694.421 150.579,500C150.579,305.579 307.15,147.738 500,147.738C545.888,147.738 591.325,156.846 633.717,174.55L654.137,124.85Z"/>

  <path d="M300.704,286.746L388.671,286.746L501.112,442.546L613.713,286.746L699.296,286.746L538.204,518.187L538.192,713.254L463.808,713.254L462.817,518.208L300.704,286.746Z"/>

</svg>