<?xml version="1.0" encoding="UTF-8" standalone="no"?>
<!DOCTYPE svg PUBLIC "-//W3C//DTD SVG 1.1//EN" "http://www.w3.org/Graphics/SVG/1.1/DTD/svg11.dtd">
<svg width="100%" height="100%" viewBox="0 0 1000 1000" version="1.1" xmlns="http://www.w3.org/2000/svg" xmlns:xlink="http://www.w3.org/1999/xlink" xml:space="preserve" xmlns:serif="http://www.serif.com/" style="fill-rule:evenodd;clip-rule:evenodd;stroke-linejoin:round;stroke-miterlimit:2;">
    <g id="Y_Glyph_Master_v1_0">
        <g transform="matrix(1.298047,0,0,1.197739,96.409371,93.449548)">
            <path d="M429.668,26.216C392.02,9.179 351.67,0.41 310.921,0.41C139.663,0.41 0.623,152.32 0.623,339.431C0.623,526.543 139.663,678.453 310.921,678.453C482.18,678.453 621.22,526.543 621.22,339.431C621.22,234.033 576.353,134.63 499.819,70.468L474.794,106.101C541.188,161.763 580.111,247.997 580.111,339.431C580.111,501.754 459.491,633.539 310.921,633.539C162.352,633.539 41.732,501.754 41.732,339.431C41.732,177.109 162.352,45.324 310.921,45.324C346.272,45.324 381.276,52.932 413.936,67.712L429.668,26.216Z"/>
        </g>
        <g transform="matrix(1,0,0,1,4.857934,0.779344)">
            <path d="M295.846,285.966L383.812,285.966L496.257,441.765L608.854,285.966L694.438,285.966L533.346,517.407L533.333,712.475L458.952,712.475L457.959,517.428L295.846,285.966Z"/>
        </g>
    </g>
</svg>
